<?xml version="1.0" standalone="no"?>
<!DOCTYPE svg PUBLIC "-//W3C//DTD SVG 20010904//EN"
 "http://www.w3.org/TR/2001/REC-SVG-20010904/DTD/svg10.dtd">
<svg version="1.0" xmlns="http://www.w3.org/2000/svg"
 width="304.000000pt" height="448.000000pt" viewBox="0 0 304.000000 448.000000"
 preserveAspectRatio="xMidYMid meet">
<metadata>
Created by potrace 1.14, written by Peter Selinger 2001-2017
</metadata>
<g transform="translate(0.000000,448.000000) scale(0.100000,-0.100000)"
fill="#000000" stroke="none">
<path d="M1445 3760 c-3 -5 -2 -10 4 -10 5 0 13 5 16 10 3 6 2 10 -4 10 -5 0
-13 -4 -16 -10z"/>
<path d="M1481 3744 c0 -11 3 -14 6 -6 3 7 2 16 -1 19 -3 4 -6 -2 -5 -13z"/>
<path d="M1505 3700 c-3 -5 -1 -10 4 -10 6 0 11 5 11 10 0 6 -2 10 -4 10 -3 0
-8 -4 -11 -10z"/>
<path d="M1480 3670 c-9 -6 -10 -10 -3 -10 6 0 15 5 18 10 8 12 4 12 -15 0z"/>
<path d="M1586 2962 c-5 -15 -16 -18 -62 -17 -52 1 -55 -1 -50 -21 7 -27 -8
-34 -80 -34 -39 0 -56 4 -60 15 -4 8 -12 15 -19 15 -7 0 -15 5 -17 11 -2 7
-19 3 -45 -11 -33 -17 -46 -19 -62 -10 -12 6 -21 15 -21 20 0 18 -35 11 -53
-10 -10 -12 -22 -18 -27 -15 -4 3 -18 -8 -30 -25 -26 -37 -15 -39 22 -3 26 24
29 25 45 10 26 -23 104 -47 130 -41 15 4 23 2 23 -6 0 -8 -12 -11 -37 -8 -43
6 -98 -19 -125 -54 l-16 -22 -28 27 c-14 15 -37 27 -50 27 -12 0 -26 5 -29 11
-5 7 -12 6 -23 -4 -10 -8 -43 -21 -75 -28 l-58 -12 27 -22 c21 -16 29 -36 40
-94 16 -85 5 -124 -49 -176 -18 -17 -40 -40 -49 -52 -9 -12 -24 -20 -34 -19
-19 3 -54 -27 -54 -46 0 -6 -7 -19 -16 -29 -22 -24 1 -62 33 -54 29 7 37 -19
23 -81 -7 -32 -8 -55 -1 -69 5 -11 12 -33 16 -48 4 -21 16 -33 49 -47 46 -19
56 -34 56 -83 0 -41 -13 -62 -31 -51 -12 6 -12 5 -1 -8 7 -9 9 -19 4 -22 -5
-3 -7 -17 -5 -31 3 -14 10 -22 16 -18 12 7 1 -13 -22 -41 -14 -18 -13 -18 12
1 16 12 36 19 47 16 25 -7 26 -33 2 -33 -27 0 -82 -62 -82 -92 0 -29 -15 -46
-23 -26 -4 10 -8 9 -16 -2 -10 -13 -13 -12 -27 5 -8 11 -13 28 -10 38 2 9 -1
17 -6 17 -16 0 -68 57 -68 74 0 8 5 18 11 21 6 4 8 13 5 21 -7 19 3 44 18 44
7 0 20 -15 29 -32 l17 -33 -5 30 c-4 17 -7 38 -8 48 -1 18 -17 25 -17 7 0 -5
-9 -10 -20 -10 -12 0 -20 7 -20 17 0 9 -3 13 -7 9 -4 -4 -8 -28 -8 -54 0 -39
-3 -46 -18 -44 -21 4 -23 -26 -2 -54 8 -10 15 -30 15 -44 1 -24 1 -24 16 -5
11 15 18 17 31 9 9 -6 19 -16 21 -24 3 -7 0 -10 -5 -7 -5 3 -8 -11 -6 -35 3
-42 37 -97 48 -78 3 6 11 8 16 5 5 -4 9 2 9 12 0 12 8 18 25 19 18 1 25 -3 25
-16 0 -21 -25 -44 -40 -35 -5 3 -10 -1 -10 -9 0 -9 -4 -16 -10 -16 -5 0 -10
-4 -10 -8 0 -4 16 -6 35 -4 19 2 33 8 30 12 -3 4 2 11 11 14 10 4 14 12 10 23
-8 20 30 63 57 63 10 0 32 14 47 30 15 17 35 30 44 30 16 0 42 -38 32 -47 -4
-5 -43 -10 -83 -12 -7 -1 -13 -7 -13 -13 0 -7 -10 -29 -22 -48 -12 -19 -21
-42 -20 -51 2 -9 -4 -19 -13 -22 -8 -4 -15 -12 -15 -19 0 -9 3 -9 12 0 7 7 16
12 20 12 15 0 8 -30 -12 -47 -19 -17 -27 -43 -14 -43 4 0 13 8 21 18 8 9 12
12 9 5 -5 -8 0 -8 19 0 14 7 28 20 31 31 6 18 7 18 26 -2 23 -23 18 -72 -6
-72 -8 0 -16 -10 -18 -22 -2 -17 -11 -24 -33 -26 -16 -2 -36 -11 -42 -20 -11
-14 -13 -12 -13 15 0 18 -5 35 -11 38 -9 6 -8 -26 6 -125 2 -14 4 -29 4 -34 1
-5 9 -2 20 8 21 19 77 18 93 -1 15 -19 49 -17 42 2 -4 9 0 15 9 15 8 0 25 8
37 18 19 16 22 24 16 55 -5 25 -12 37 -24 37 -11 0 -13 3 -5 8 6 4 11 25 11
47 0 22 -3 34 -5 28 -3 -7 -11 -13 -19 -13 -9 0 -13 4 -9 9 3 5 -4 12 -15 16
-21 7 -70 74 -70 96 0 6 7 8 16 5 11 -4 14 -1 10 12 -3 9 -2 22 2 28 14 20 70
47 86 41 19 -8 21 -27 3 -27 -16 0 -53 -37 -45 -45 3 -3 13 4 23 15 24 27 55
25 88 -5 27 -25 36 -55 17 -55 -6 0 -6 -9 0 -24 5 -13 7 -26 4 -29 -2 -2 2
-10 11 -17 8 -7 15 -21 15 -31 0 -10 5 -21 11 -24 6 -4 8 -13 5 -20 -3 -8 0
-16 7 -19 9 -5 9 -7 -1 -12 -6 -3 -10 -10 -6 -15 3 -5 0 -9 -6 -9 -15 0 -4
-49 16 -71 8 -8 14 -19 14 -24 0 -5 8 -17 17 -27 16 -18 16 -21 -15 -49 -37
-35 -47 -32 -56 16 -6 31 -24 49 -27 28 -6 -36 -5 -60 3 -70 16 -19 16 -62 1
-75 -8 -6 -12 -17 -9 -25 3 -8 1 -11 -4 -8 -6 3 -10 13 -10 21 0 8 -4 14 -8
14 -5 0 -15 11 -22 25 -19 36 -23 24 -5 -18 8 -20 14 -46 12 -59 -2 -19 2 -23
23 -20 39 4 65 21 84 53 9 16 30 36 47 44 16 9 29 19 29 24 0 5 9 20 21 35 21
27 26 80 20 206 -1 25 1 55 4 68 5 16 3 22 -8 22 -8 0 -20 7 -28 16 -8 9 -21
13 -35 10 -27 -7 -74 43 -74 79 0 12 -7 28 -15 35 -20 17 -19 27 5 35 11 3 20
11 20 16 0 6 -8 5 -21 -1 -23 -13 -38 -4 -92 54 l-27 29 21 23 c13 13 19 30
15 41 -3 10 -2 24 3 32 13 20 23 -2 25 -60 1 -27 4 -50 7 -51 44 -27 89 -43
109 -38 29 7 38 35 16 43 -9 4 -15 1 -13 -5 3 -19 -35 -22 -45 -4 -5 9 -14 16
-20 16 -11 0 -37 29 -38 43 0 4 9 7 19 7 11 0 22 6 24 13 4 9 8 9 15 -1 7 -11
10 -8 14 11 3 18 0 24 -11 23 -11 -1 -16 7 -16 24 0 16 5 24 14 22 11 -2 12 0
3 10 -13 16 -5 31 25 47 34 18 41 13 38 -23 -3 -28 1 -36 22 -45 14 -7 28 -10
30 -7 2 2 -4 7 -15 10 -26 9 -35 32 -22 57 11 20 60 27 60 9 0 -7 6 -8 17 -2
20 12 60 -3 86 -32 17 -19 17 -21 -6 -40 -41 -37 -86 -66 -101 -66 -9 0 -20
-9 -26 -21 -11 -19 -9 -20 37 -17 45 3 48 5 46 30 -1 20 4 29 20 34 12 3 30
15 40 25 20 22 53 25 60 7 3 -7 6 -4 6 6 1 19 1 19 15 1 13 -18 14 -17 11 7
-3 22 4 29 36 44 38 17 61 14 99 -14 3 -2 -6 -12 -20 -23 l-25 -19 27 9 c21 8
29 7 36 -5 7 -12 10 -10 20 10 22 49 37 21 35 -63 -2 -77 -1 -79 28 -102 22
-17 26 -25 17 -31 -10 -6 -6 -15 15 -33 15 -14 23 -25 16 -25 -8 0 -6 -7 5
-19 12 -13 14 -21 6 -26 -8 -5 -8 -11 1 -21 9 -11 8 -15 -4 -20 -9 -3 -21 -3
-27 1 -5 3 -10 2 -10 -2 0 -5 10 -13 22 -18 28 -13 39 -41 12 -32 -19 7 -19 7
0 -8 10 -8 22 -16 25 -17 4 -2 17 -18 30 -36 19 -27 26 -31 38 -21 10 9 12 21
7 38 -4 14 -6 47 -5 73 1 25 -3 49 -9 53 -14 9 -12 64 5 121 20 66 19 97 -4
111 -16 10 -19 23 -18 76 1 44 7 71 18 83 9 11 15 30 14 44 -2 14 4 36 12 49
14 21 16 22 31 7 13 -12 14 -18 4 -28 -23 -23 -12 -30 36 -23 79 12 85 30 36
102 -24 36 -58 65 -86 76 -16 6 -23 30 -19 65 1 6 -2 12 -7 12 -4 0 -17 6 -28
14 -18 14 -17 15 11 14 49 -1 55 1 49 17 -4 8 -10 15 -15 15 -4 0 -6 -7 -3
-15 5 -11 2 -14 -12 -9 -11 4 -24 11 -30 15 -6 5 -15 5 -20 1 -4 -4 -2 1 5 10
14 19 36 14 25 -4 -4 -7 -2 -8 5 -4 6 4 9 11 6 16 -10 16 29 20 52 4 28 -17
73 -12 73 9 0 8 -11 23 -25 35 -29 25 -31 37 -10 58 8 9 15 26 15 39 0 13 12
37 26 54 21 25 23 34 14 52 -10 17 -18 20 -45 15 -26 -5 -39 -1 -63 19 -17 14
-34 34 -37 45 -8 24 -43 30 -72 12 -12 -8 -28 -12 -35 -10 -15 5 -17 39 -3 51
6 5 1 7 -11 4 -26 -6 -49 30 -40 61 6 17 80 57 108 57 3 0 10 3 14 8 4 4 -5 7
-19 7 -15 0 -27 -5 -27 -12 0 -6 -10 -3 -22 8 -13 11 -36 26 -51 32 -15 7 -26
16 -23 21 3 5 -8 14 -24 20 -25 8 -30 7 -30 -6 0 -12 -6 -14 -27 -9 -40 10
-54 33 -47 76 4 25 2 40 -9 49 -13 10 -16 9 -21 -7z m-116 -114 c0 -13 -32 -6
-37 9 -3 7 3 9 16 6 12 -3 21 -10 21 -15z m230 -61 c0 -7 -19 -18 -42 -25 -24
-7 -54 -21 -68 -30 -14 -9 -43 -24 -65 -32 -22 -9 -41 -21 -41 -28 -1 -7 -2
-16 -3 -22 0 -5 -10 -10 -20 -10 -19 0 -81 68 -81 89 0 6 -4 11 -10 11 -14 0
-12 38 3 43 6 2 19 1 28 -4 11 -5 30 -2 55 11 l39 19 26 -25 c35 -33 53 -30
90 16 l32 39 28 -20 c16 -11 29 -26 29 -32z m110 -17 c0 -5 -4 -10 -10 -10 -5
0 -10 5 -10 10 0 6 5 10 10 10 6 0 10 -4 10 -10z m-840 -49 c0 -18 -23 -35
-33 -24 -7 6 15 43 25 43 5 0 8 -9 8 -19z m798 -99 c2 -7 -2 -10 -12 -6 -9 3
-16 11 -16 16 0 13 23 5 28 -10z m65 -52 c7 -1 1 -10 -12 -21 -22 -18 -26 -18
-33 -4 -12 20 0 38 19 31 8 -3 20 -6 26 -6z m5 -69 c-3 -19 0 -27 7 -25 7 3
17 -1 24 -9 30 -37 -32 -69 -72 -37 -18 15 -19 20 -8 33 7 9 10 21 6 27 -9 14
13 40 32 40 11 0 14 -8 11 -29z m-838 -512 c32 -20 33 -23 15 -29 -24 -9 -72
16 -72 36 0 20 16 17 57 -7z m70 -51 c0 16 20 6 20 -10 0 -6 -3 -8 -7 -5 -3 4
-12 2 -19 -4 -18 -15 -33 -3 -27 21 5 19 6 20 19 3 9 -12 13 -14 14 -5z m-96
6 c11 -4 13 -11 5 -31 -5 -13 -9 -31 -9 -39 0 -14 2 -13 16 0 20 20 41 22 25
2 -6 -8 -10 -20 -9 -27 6 -25 -33 -20 -62 8 -32 30 -39 49 -15 39 15 -6 20 5
8 18 -26 25 1 45 41 30z m170 -86 c6 -40 5 -48 -9 -48 -13 0 -14 4 -4 23 11
19 10 20 -3 9 -13 -11 -16 -8 -20 17 -2 17 -1 28 3 26 4 -3 10 2 13 11 9 23
12 16 20 -38z m-108 -33 c-3 -8 -2 -14 2 -14 39 6 43 -23 7 -47 -27 -18 -53
-10 -36 10 6 7 8 15 5 19 -6 6 13 47 22 47 4 0 4 -7 0 -15z m104 -35 c0 -5 -2
-10 -4 -10 -3 0 -8 5 -11 10 -3 6 -1 10 4 10 6 0 11 -4 11 -10z m-220 -67 c1
-17 2 -17 15 1 8 11 21 16 30 13 19 -8 20 -37 0 -37 -8 0 -15 -9 -15 -20 0
-22 -1 -22 -43 -25 -23 -2 -26 1 -21 18 6 19 12 45 13 60 2 15 21 6 21 -10z
m138 0 c-5 -25 -28 -28 -28 -4 0 12 6 21 16 21 9 0 14 -7 12 -17z m5 -410 c-3
-7 0 -13 6 -13 6 0 11 -5 11 -11 0 -9 -4 -9 -14 0 -10 8 -19 6 -38 -13 -30
-27 -58 -40 -58 -25 0 5 12 14 26 19 14 6 22 15 19 20 -4 6 -2 17 5 25 14 17
50 16 43 -2z"/>
<path d="M1003 2888 c2 -7 10 -13 17 -13 7 0 15 6 18 13 2 7 -5 12 -18 12 -13
0 -20 -5 -17 -12z"/>
<path d="M775 2881 c-3 -5 -1 -12 5 -16 5 -3 10 1 10 9 0 18 -6 21 -15 7z"/>
<path d="M2210 2659 c0 -5 5 -7 10 -4 6 3 10 8 10 11 0 2 -4 4 -10 4 -5 0 -10
-5 -10 -11z"/>
<path d="M2324 2635 c-3 -14 -1 -31 5 -38 13 -16 -4 -37 -30 -37 -10 0 -24 -9
-33 -21 -10 -16 -20 -19 -37 -14 -20 7 -20 9 -6 17 10 5 17 21 16 36 0 15 -3
20 -6 12 -2 -8 -7 -22 -9 -30 -5 -13 -6 -13 -14 0 -7 10 -10 11 -10 3 0 -7 -4
-13 -10 -13 -5 0 -10 16 -10 35 0 19 -4 35 -10 35 -5 0 -10 -9 -10 -20 0 -11
-4 -20 -10 -20 -5 0 -10 -7 -10 -16 0 -9 5 -12 11 -8 8 5 10 -1 7 -20 -4 -17
0 -29 9 -35 21 -11 90 3 112 23 9 9 22 16 28 16 5 0 23 12 38 26 31 28 98 44
109 25 11 -18 25 -13 19 7 -2 10 -12 19 -21 20 -40 5 -77 1 -80 -8 -6 -15 -32
-12 -38 5 -4 8 -1 22 6 30 8 10 9 15 1 15 -6 0 -13 -11 -17 -25z"/>
<path d="M658 2623 c7 -3 16 -2 19 1 4 3 -2 6 -13 5 -11 0 -14 -3 -6 -6z"/>
<path d="M2050 2590 c0 -5 -7 -10 -15 -10 -8 0 -15 -4 -15 -10 0 -13 12 -13
45 0 14 5 23 14 20 20 -8 13 -35 13 -35 0z"/>
<path d="M2382 2507 c-6 -7 -7 -18 -3 -26 7 -11 11 -9 20 7 6 11 11 23 11 26
0 11 -17 6 -28 -7z"/>
<path d="M300 2489 c0 -11 4 -18 10 -14 5 3 7 12 3 20 -7 21 -13 19 -13 -6z"/>
<path d="M2204 2461 c4 -5 0 -12 -6 -14 -7 -3 -2 -6 11 -6 20 -1 21 1 11 14
-14 16 -25 21 -16 6z"/>
<path d="M2330 2460 c-8 -5 -11 -12 -7 -16 4 -4 13 -2 19 4 15 15 7 24 -12 12z"/>
<path d="M2046 2422 c-10 -17 116 -105 178 -123 77 -24 88 -24 118 1 14 10 29
16 33 12 4 -4 6 2 4 12 -3 14 -21 24 -64 36 -33 9 -82 26 -110 37 -54 23 -151
38 -159 25z"/>
<path d="M720 1974 c1 -22 37 -76 44 -65 4 6 19 11 34 12 24 1 22 3 -12 13
-21 7 -45 21 -52 31 -8 10 -14 15 -14 9z"/>
<path d="M1340 1558 c0 -7 12 -24 25 -37 24 -22 25 -22 25 -3 0 21 -24 52 -41
52 -5 0 -9 -6 -9 -12z"/>
<path d="M1091 1516 c-8 -10 -6 -12 9 -11 26 2 34 11 16 18 -8 3 -19 0 -25 -7z"/>
<path d="M1815 1347 c0 -19 4 -22 28 -19 32 5 32 2 11 -41 -18 -35 -47 -63
-81 -77 -14 -6 -26 -24 -33 -49 -6 -22 -15 -43 -20 -46 -6 -4 -8 -11 -5 -16 4
-5 -1 -10 -9 -10 -9 -1 -21 -2 -27 -3 -19 -2 -57 -46 -55 -64 2 -10 13 -18 29
-20 21 -3 27 1 27 17 0 23 67 101 88 101 11 0 13 8 9 30 -4 17 -3 30 1 31 4 1
24 2 45 3 53 4 76 30 79 91 2 38 0 50 -12 50 -8 1 -14 6 -12 13 1 7 -7 12 -17
12 -11 0 -23 5 -26 10 -11 17 -20 11 -20 -13z"/>
<path d="M1420 1333 c0 -12 5 -25 11 -28 17 -11 18 -2 4 25 -14 24 -14 24 -15
3z"/>
<path d="M803 1325 c-7 -8 -9 -16 -4 -19 4 -3 16 3 26 14 14 15 15 20 4 20 -8
-1 -20 -7 -26 -15z"/>
<path d="M541 1291 c-8 -5 -12 -18 -9 -29 3 -11 -2 -32 -12 -47 -10 -15 -15
-35 -13 -46 5 -18 -4 -24 -34 -20 -7 1 -2 -9 12 -23 24 -24 28 -36 40 -107 5
-35 8 -37 41 -37 43 0 50 14 33 65 -30 87 -34 156 -13 192 15 25 15 32 5 45
-15 18 -29 20 -50 7z"/>
<path d="M1422 1274 c10 -10 20 -16 22 -13 3 3 -5 11 -17 18 -21 13 -21 12 -5
-5z"/>
<path d="M1058 894 c-31 -22 -40 -25 -53 -14 -16 13 -20 3 -9 -24 10 -25 33
-19 69 18 25 26 36 31 45 23 8 -9 10 -8 5 6 -9 22 -14 22 -57 -9z"/>
<path d="M540 825 c-11 -13 -10 -14 4 -9 9 3 16 10 16 15 0 13 -6 11 -20 -6z"/>
<path d="M531 774 c0 -11 3 -14 6 -6 3 7 2 16 -1 19 -3 4 -6 -2 -5 -13z"/>
<path d="M537 719 c7 -7 15 -10 18 -7 3 3 -2 9 -12 12 -14 6 -15 5 -6 -5z"/>
<path d="M1195 450 c-4 -6 -15 -8 -24 -5 -11 3 -18 0 -18 -9 0 -16 13 -15 42
1 11 6 17 14 13 18 -3 3 -9 1 -13 -5z"/>
<path d="M1175 379 c-4 -6 -5 -12 -2 -15 2 -3 7 2 10 11 7 17 1 20 -8 4z"/>
<path d="M1200 354 c0 -8 5 -12 10 -9 6 4 8 11 5 16 -9 14 -15 11 -15 -7z"/>
<path d="M1231 347 c2 -1 13 -9 24 -17 19 -14 19 -14 6 3 -7 9 -18 17 -24 17
-6 0 -8 -1 -6 -3z"/>
<path d="M1260 299 c0 -5 5 -7 10 -4 6 3 10 8 10 11 0 2 -4 4 -10 4 -5 0 -10
-5 -10 -11z"/>
<path d="M1263 273 c-7 -3 -13 -12 -12 -21 0 -13 2 -14 6 -3 4 10 9 8 19 -10
8 -14 13 -18 13 -9 -1 26 -14 47 -26 43z"/>
<path d="M1231 234 c0 -11 3 -14 6 -6 3 7 2 16 -1 19 -3 4 -6 -2 -5 -13z"/>
</g>
</svg>
