<?xml version="1.0" encoding="utf-8"?>
<!-- Generator: Adobe Illustrator 22.0.1, SVG Export Plug-In . SVG Version: 6.00 Build 0)  -->
<svg version="1.1" id="Layer_1" xmlns="http://www.w3.org/2000/svg" xmlns:xlink="http://www.w3.org/1999/xlink" x="0px" y="0px"
	 viewBox="0 0 600 600" style="enable-background:new 0 0 600 600;" xml:space="preserve">
<style type="text/css">
	.st0{fill:#D5FEFB;}
</style>
<path class="st0" d="M129.5,510c-0.6-0.6-1-1-1.6-1.6c1.1-0.3,2.1-0.5,3.2-0.7c-0.4-0.5-0.7-0.8-0.8-0.9c0.4-1.2,0.7-2.2,1.1-3.5
	c0.6-0.1,1.5-0.3,2.5-0.5c0-2.4,0-4.9,0-7.6c-3.5,0-7.1,0-10.7,0c-0.1,0.9-0.2,1.6-0.3,2.6c-0.4,0.1-0.9,0.2-1.5,0.3
	c-0.2-0.6-0.4-1.2-0.7-2c-0.5,0.3-0.9,0.5-2,1.2c0.5-1.3,0.7-2.1,1-2.9c-0.6-0.9-1.2-2-1.9-3.2c-1.2,0-2.3,0-2.9,0
	c-2-1.4-3.5-2.5-5.2-3.7c0.8-0.4,1.4-0.7,2.3-1.1c-0.8-0.3-1.4-0.5-2-0.7c1.5-2.2,0.5-4.7,1-7.4c0.5-0.4,1.3-1,2.1-1.6
	c-0.7-0.7-1.2-1.1-1.7-1.6c-0.3,0.3-0.7,0.6-1.2,1c-0.2-1-0.3-1.9-0.6-3.1c-0.4,0.3-0.7,0.5-0.7,0.5c-0.9-0.8-1.8-1.6-3-2.7
	c0-1.7,0-4,0-6.4c0.6-0.2,1.2-0.4,1.9-0.7c0-0.7,0-1.5,0-2.5c-1.1,0-2.2,0-3.2,0c-0.9-1.4-1.7-2.6-2.7-4.1c0.3-2.1-0.8-4.8,0.7-6.8
	c-0.3-2.2-0.6-4.1-0.9-5.8c-1.9-1.6-3.7-3.2-3.9-6.1c-1.8-0.9-3.7-1.8-6-3c-0.3-1.8-0.8-3.9-1.3-6.5c-0.6-0.3-1.5-0.9-2.5-1.5
	c0-2.5,0-5.2,0-8.1c1.1-0.8,2.4-1.6,3.8-2.6c0.1-1.1,0.1-2.2,0.2-3.7c1.5,0,3.1,0,4.8,0c0-2.8,0-5.3,0-7.8c-0.5-0.1-0.9-0.2-1.6-0.3
	c-0.1-0.8-0.3-1.7-0.5-2.7c-1.4,0-2.9,0-4.4,0c-0.4,0.4-0.9,0.9-1.4,1.4c0.3,3.1-0.5,6.3,0.7,9.4c-0.4,0-0.7,0.1-1.1,0.1
	c-0.8-2.1-2.9-3.9-0.7-6.4c0.3-0.4,0.4-1.5,0.1-1.9c-1.3-1.4-0.8-3.1-1-4.6c-0.1-0.7-0.7-1.4-1-2c1.8-2.4,0.7-5.1,1.1-7.7
	c-0.5-0.2-1-0.3-1.8-0.6c-1.4-3.9,2.5-7.5,1.6-11.7c-0.6,0.3-1,0.6-2.1,1.2c0.5-1.3,0.8-2.1,1.1-3c-0.8-0.5-1.7-1.1-2.8-1.7
	c0-1.9,0-4,0-5.3c1.3-1.6,2.2-2.8,2.8-3.4c-0.5-2.6-0.8-4.6-1.2-6.5c-0.5-0.1-0.9-0.2-1.7-0.4c0.3-1.6-0.5-3.4,0.9-5.2
	c-0.8-1.2-1.7-2.6-2.7-4.1c0-1.3,0-2.7,0-4.5c0.6,0.5,0.9,0.7,1.6,1.3c0.1-1.7,0.2-3.2,0.4-4.8c0.4-0.1,0.8-0.2,1.4-0.4
	c0.1-0.1,0.5-0.4,0.5-0.6c0-3,0-6,0-9.1c-0.6-0.1-1-0.2-1.8-0.4c-0.1-1.4-0.2-3-0.3-4.5c-0.7-0.2-1.2-0.5-1.9-0.7c0-2.4-0.2-4.7,0-7
	c0.5-4.4-1.3-8-2.7-11.9c-1.4-3.6-2.5-7.3-4-11.9c0.4,0.4,0.1,0-0.3-0.3c-4.6-3.7-6.5-8.6-6-14.5c0.2-2.6-0.7-5-1.7-7.3
	c-0.3-0.6-0.2-1.2-0.4-2.1c1.7-1.7,3.3-3.6,4.3-6.1c0.6-1.6,2.8-2.5,4.4-3.8c-0.2-0.8-0.4-1.7-0.6-2.7c-0.3-1-0.6-2.1-0.9-3.2
	c1.6-1.9,0.7-4.3,0.9-6.5c0.3-2.4-0.4-4.7,0.8-7.2c0.9-1.9,0.2-4.5,0.2-7c0.6-0.1,1-0.2,1.6-0.4c1.3-1.4,0-2.5-0.5-3.6
	c0.7-2.3,1-4.7,2-6.8c1-2.1,2.6-3.9,3.9-5.8c-0.2-0.3-0.4-0.6-0.7-1c0.1-2.1,2.4-2.6,3.6-4c-1.3-2-1.3-4.1,0.6-5.9
	c-0.8-0.4-1.2-0.6-1.9-1c-0.7,1.4-1.3,2.8-2,4.1c-0.8,0-1.6,0-2.5,0c0-2.6,0-5,0-7.6c0.4-0.1,0.8-0.2,1.6-0.4
	c0.1-0.7,0.3-1.6,0.4-2.5c0.6-0.6,1.2-1.2,1.8-1.8c0-4,0-7.9,0-12.4c1.4-0.9,3-1.8,5-3.1c0-0.6,0.1-1.8,0.3-3.5c1.2,0.7,2,1.2,3.1,2
	c-1.1,0.6-1.9,1.1-2.8,1.6c0.9,0.9,1.4,1.4,2,1.9c0.4-0.4,0.9-0.8,1.4-1.3c0.5-3.4-0.9-7.2,2.1-10.1c0-1.3,0-2.6,0-4.2
	c1.3-0.6,2.9-1.2,4.2-1.7c1.6-0.6,1.4-2.6,3.3-2.8c1.4-0.1,2.7-1.4,4.5-2.3c0-0.9,0-2.1,0-3.3c0.8-0.2,1.3-0.3,1.9-0.5
	c0-1.7,0-3.5,0-5.5c2.9,0.2,2.8-2.7,4.3-3.9c2.9-0.5,5.7-0.9,8-1.3c1-1.1,1.7-1.8,2.8-3c0-2.7,0-6.2,0-9.4c0.8-1,2.4-0.5,2.4-2.3
	c0-0.7,1.2-1.7,2-2.1c1-0.5,1.9-0.9,2-2.3c1.1-0.1,2.2-0.1,3.3-0.2c0.6-1.3,1.2-2.6,1.8-3.8c1.1-0.1,2.2-0.1,2.7-0.1
	c1.1-1.1,1.8-1.8,2.9-2.9c0-1.2,0-2.9,0-4.8c0.6-0.1,1.1-0.2,1.9-0.4c0-0.9,0.1-2,0.2-3.2c3.1-2.7,7-1.1,10.5-1.7
	c1.6-1.9,3.2-3.7,5-5.7c0.8,0,1.9,0,3,0c0.3-0.7,0.5-1.3,0.7-2.1c1.1-0.1,2.2-0.1,3.3-0.2c0.8-1.7,1.5-3.6,3.8-3.9
	c0.4-2.4,3.1-1.6,4.2-3c0.5-1.9,1.1-3.9,1.6-6c2.6,0,5.1,0,7.6,0c0.1-0.6,0.2-1.1,0.4-1.9c0.6-0.1,1.4-0.1,2.5-0.2
	c0.8-1,1.9-2.1,3.3-3.8c0.4,0,1.5,0,2.9,0c0.1,1.1,0.2,2.4,0.3,3.7c1.2,0,2.4,0,3.6,0c0.2-0.5,0.4-1.1,0.7-1.9c1.1,0,2.2,0,2.9,0
	c1.3-1.5,2.3-2.6,3.4-4c3.4,0,7,0,10.9,0c0.2-0.5,0.3-1.1,0.4-1.4c2.1-1,4.1-1.9,6.2-2.8c-0.6-0.7-0.9-1-1.5-1.7c4.9,0,9.5,0,13.8,0
	c1.5-2,2.7-3.6,3.9-5.2c1.3,0,2.3,0,2.7,0c1-0.9,1.6-1.3,2.2-2c0.5-0.5,0.8-1.2,1.2-1.8c1.6,1.3,3.4,0.1,4.3-0.7
	c1.3-1,2.8-1.4,4.1-1.8c0.1-0.7,0.2-1.1,0.4-1.7c1.2,0,2.3,0,3.4,0c1-3,4-3.3,5.9-5c0.6,0.6,1.2,1.2,1.8,1.8c1-0.1,0.9-1-0.3-3.7
	c0.9,0,1.6,0,2.6,0c0.2-1.1,0.4-2,0.5-3c0.8,0,1.5,0,2.6,0c0.4,0.7,1,1.6,1.7,2.6c0.7-0.4,1.6-0.8,2.5-1.2c-0.3-0.4-0.6-0.7-1-1.2
	c2.9-0.5,5.7-1,8.3-1.5c0.7-0.7,1.3-1.2,1.8-1.9c0.5-0.5,0.8-1.2,1.3-1.9c1.4-0.1,3-0.2,4.8-0.3c-0.6-0.7-0.9-1-1.4-1.6
	c2.3,0,4.5,0,6.4,0c2.7-2.9,5.9-3.4,9.5-3.2c0.1,0.5,0.2,0.9,0.4,1.7c0.7-0.3,1.4-0.6,2.4-0.9c0.2,0.6,0.4,1.2,0.7,1.9
	c3.3,0,6.7,0,10.3,0c1.3-0.9,2.7-1.9,4.3-3c0.1-0.8,0.3-1.7,0.4-2.8c4.4,0.3,8.6-0.4,12.7-1.9c0.4-0.2,1.2-0.2,1.5,0
	c1.5,1.7,3.4,0.7,5.3,1c0.6-0.9,1.2-1.8,1.9-2.9c4,0,8.3,0,13.1,0c2.1,3.1,6.8,4.5,7.6,9.6c0.3,0.1,0.9,0.3,1.6,0.6
	c0,1.1,0,2.2,0,3.5c1.3,0,2.4,0,3.7,0c0.2,0.7,0.3,1.3,0.5,1.8c0.2,0.4,0.7,0.7,1.2,1.3c5.3,0,10.7,0,16.5,0c0.5,1.3,1,2.6,1.5,4
	c0,0,0.2,0.1,0.2,0c0.3-0.2,0.5-0.5,0.9-0.9c0.6,0.9,1.2,1.7,2.2,3c0.7,0,1.9,0,2.9,0c1.5,2.5-1.7,1.5-1.6,3.4c0.4,0.2,1,0.5,1.7,1
	c0.3,0.8,0.4,2.1,1.1,2.8c0.7,0.7,1.9,0.9,2.9,1.2c-1.3,1.4,1.3,2.9,0,4.8c-0.9,1.2-0.6,3.4-0.8,5.7c-0.7,0.4-1.7,1.1-2.9,1.8
	c0.1,0.4,0.2,1,0.5,1.2c1.3,1,2.6,1.8,4.3,3c1.3,0,3.1,0,5.1,0c0,2.7,0,5.3,0,7.9c-0.5,0.1-0.9,0.2-1.6,0.4c0,1.4,0,2.8,0,4.5
	c0.3,0.1,0.9,0.3,1.5,0.5c0.2,0.6,0.4,1.2,0.6,1.5c2.4,1.4,3.1-1.3,5.1-2c0.3,0.8,0.6,1.4,0.9,2.2c0.7,0,1.5,0.1,2,0.1
	c0.8,0.9,1.4,1.6,2.7,3.1c0,0.3,0,1.5,0,2.6c0.8,0.2,1.3,0.3,1.9,0.5c0,1.4,0,2.8,0,4.1c0.6,0.6,1.1,1.1,1.6,1.6
	c4.1,0.2,8.4-0.7,11.9,1.8c0.7-0.7,1.3-1.3,2.5-2.5c0,2,0,3.1,0,4.1c3.6,1.7,7.3,1.9,11.1,1.5c0.1,1.5,0.1,2.6,0.2,3.9
	c0.4,0.1,0.9,0.2,1.8,0.4c-0.2,0.4-0.4,0.8-0.7,1.4c0.3,0.5,0.6,1.1,1.1,2c-0.8,0.3-1.4,0.5-1.6,0.5c-0.9,1.8-1.7,3.3-2.8,5.4
	c0.5,1.4,1.2,3.4,2,5.4c1.5,0.1,2.6,0.1,3.9,0.2c0.1,0.9,0.3,1.8,0.4,2.7c3.5,0.6,7.3-0.7,10.7,1.5c0,0.9,0.1,2.1,0.2,3.3
	c0.5,0.2,1.1,0.4,1.7,0.6c0.8,2.4-0.8,5.2,1.1,7.5c0.3,0.4-0.3,1.5-0.5,2.2c-0.1,0.6-0.3,1.2-0.4,1.8c0,0.3,0.1,0.6,0.2,0.9
	c0.4,0.1,0.9,0.2,1.5,0.4c0,1.7,0,3.5,0,5.6c1.7,0.1,3.3,0.2,4.5,0.3c3,3.9,5,8.2,9.1,10.8c0.3-0.3,0.7-0.6,1.3-1.2
	c0.1,1,0.2,1.8,0.3,2.8c-0.7,0.5-1.5,1.1-2.1,1.6c0,1.7,0,3,0,4.4c1.9,0.9,3.7,1.9,4.2,4.4c1.1,0,2.2,0,3.5,0c0.1-0.4,0.3-1,0.4-1.1
	c0.8,0.8,1.8,1.8,2.7,2.7c1.2-0.8,1.6-1.1,2.1-1.4c2.7,2.9,5.3,5.7,8.2,8.8c-1.3,0.9-3.5,1.7-3.8,2.9c-0.6,2.6-3.8,0.4-4.1,2.7
	c0,1.8,0,3.6,0,5.7c1.8,0.8,3.6,1.6,5.7,2.6c0,0.4,0,1.1,0,1.9c2.5,1,4.5,2.3,4.2,5.4c1.3,0,2.4,0,3.3,0c0.8,1.1,1.5,2,2,3
	c0.5,1,0.7,2,1.1,3c0.5,0.1,0.9,0.2,1.5,0.4c0,1.4,0,2.9,0,4.8c-1.7,1.7-3.7,3.7-5.6,5.6c2.1,0.8,3.4,2.7,3.6,4.8
	c0.2,1.9,2.8,1.5,2.5,3.4c0.6,0.1,1.3,0.1,2.4,0.3c1.9,2.3,4.1,4.9,6.3,7.6c0,0.9,0,1.9,0,2.9c0.6,0.2,1.2,0.4,1.9,0.7
	c0,3.1,0,6.2,0,9.4c0.6,0.1,1.1,0.2,1.9,0.4c0.1,1.2,0.2,2.7,0.2,4.3c1.1,0.9,2.3,2,3.8,3.3c0.8,0.3,2,0.9,3.4,1.5
	c-0.6,0.6-0.8,0.8-1.2,1.2c1.1,1,1.9,2.5,3.7,2.7c0.5,5.5,1,10.9,1.5,16.6c0.4,0.1,1,0.4,1.7,0.6c0,2.1,0,4.2,0,6.1
	c0.8,0.8,1.4,1.4,1.9,1.9c0,1.8,0,3.6,0,5.3c-0.7,0.2-1.3,0.5-2.2,0.8c0.9,0.3,1.5,0.5,2.4,0.8c-0.1,1-0.3,2-0.6,3.7
	c0.1,0.4,0.4,1.5,0.7,2.5c-0.8,0.3-1.4,0.6-2.2,0.9c0,3.4,0,6.8,0,10.4c-0.6,0.1-1.1,0.2-1.8,0.4c0.3,4-3.6,5.9-5.2,9.9
	c0,3.7-0.1,8,0,12.3c0,1.4-0.1,2.7,0.7,4.2c0.7,1.3,0.6,3.8-0.2,5.2c-0.9,1.7-0.2,3.2-0.4,3.8c-1.7,2.9-3.1,4.8-4,7
	c-0.4,1-0.1,2.6,0.4,3.6c1,1.9,1.5,3.8,1.3,6.3c0.8-0.7,1.2-1,1.9-1.5c0.1,1.8,0.2,3.3,0.3,4.7c-1.5,1.4-2.8,2.7-4,4
	c0,1.7,0,3.3,0,5.1c-1.2,0.6-2.5,1.1-3.9,1.8c0,1.7,0,3.5,0,5.4c0.4,0.1,0.9,0.2,1.6,0.3c0.3,2.6,0.7,5.4,1,8.5
	c-0.3,0.2-1,0.5-1.6,0.8c0.4,0.7,0.7,1.3,1.2,2.1c-0.8,0.3-1.4,0.5-2,0.7c0.4,1.6,0.7,3.2,1.1,4.7c0.7-0.4,1.4-0.7,2.4-1.3
	c0,3.3,0,6.2,0,9.1c-0.5,0.1-0.9,0.2-1.6,0.4c0,5.1,0,10.2,0,15.5c-2.1,0.2-1.6,2.8-3.6,3.5c-1.3,0.5-2.1,2.2-3.6,3.8
	c-0.4,0-1.5,0.1-2.7,0.1c-1.2,4.2-4.7,7.7-3.1,12.6c-0.9,0.2-1.3,0.3-2,0.4c-0.9,4-1.8,8.1-2.7,12.5c-1,0.7-2.2,1.6-3.6,2.6
	c0,1.2,0,2.3,0,3.4c-2.1,0.7-3.5,1.9-4.4,4.3c-2.7,0.4-5.8,1-9,1.5c-2.5-0.1-1,2.7-2.7,3.7c-1.2,0.7-2.3,1.9-3.1,3.3
	c-0.8,1.3-1.8,2.5-3.8,2.8c-1.5,0.2-3,1.5-5,2.6c0-0.1-0.2,0.4-0.4,1.1c-1.7,0-3.5,0-5.3,0c-0.6-0.6-1.2-1.2-2-2
	c-0.2,0.6-0.4,1.1-0.7,2c-1,0-2.3,0-3.6,0c-0.1,1.5-0.1,2.6-0.2,3.6c-1.6,0.9-3,1.8-4.6,2.5c-1.6,0.6-3.3,1-5.1,1.5
	c-0.4,0.9-0.9,2-1.5,3.3c-0.3,0.1-1.1,0.2-1.5,0.6c-0.9,1.1-1.5,2.6-2.6,3.4c-1.2,0.8-2.7,1-2.7,2.9c-4.1,2.6-6.3,7.8-11.8,8.5
	c-1.3,0.1-1.9,1-2.2,2.2c-0.2,0.5-1.2,0.8-1.8,1.2c-0.1,0.7-0.2,1.5-0.3,2.4c-1.2,0.1-2.3,0.1-3.5,0.2c-0.2,0.5-0.4,1.1-0.7,1.8
	c-0.9,0-1.9,0-2.7,0c-2.1,1.6-4.7,2.7-5.7,4.6c-1.2,2.1-4.5,2.1-4.3,5.3c-1.2,0-2.3,0-3.3,0c-1.8,1.8-3.4,3.5-5,5.2
	c-1.8,0-3.4,0-5.1,0c-34.3,0-68.7,0-103,0c-4,0-8.2,0.6-12.6-1.4c-0.8-0.8-2-2.1-3.2-3.4c-1-0.1-1.8-0.2-2.7-0.3c0-1.1,0-2.3,0-3.6
	c-1.3,0-2.4,0-3.5,0c-1.3-1.5-2.5-2.8-3.7-4.2c-3,0-5.8,0-8.7,0c-0.1-0.6-0.2-1-0.4-1.9c-3.4-0.4-7,0.1-10.4-0.2
	c-0.7-0.7-1.3-1.3-2.1-2.1c-1.9,0-4.1,0-6.1,0c-0.2-0.6-0.3-1.1-0.5-1.9c-4.2,0.3-8.6-0.6-12.8,1.1c-4-2.3-8.4-0.2-12.6-1.3
	c-0.2,0.8-0.3,1.3-0.4,1.8c-0.2,0.1-0.4,0.4-0.7,0.4c-3,0-5.9,0-8.7,0c-0.8-0.8-1.4-1.4-2-2c-2,0.2-4-0.2-6-0.9
	c-1.9-0.7-4.2,0.8-6-1c-0.6,0.6-1.2,1.2-2,2c-3-0.6-6.1,0.6-9.4-0.9c-1.9-0.9-4.5-0.2-6.8-0.2c-0.2-1.2-0.4-2.1-0.6-3.6
	c-1.3,1.5-2.2,2.7-3.2,3.7c-0.9,0.9-1.9,1.6-3.5,2.9c-2.9,0-6.6,0-10.3,0c-0.6-0.9-1.3-2-2-2.9c-1.2,0-2.2,0-3.4,0
	c-0.2-0.9-0.3-1.8-0.5-2.9c-1.1,0-2.2,0-3.6,0c-0.1-0.9-0.1-1.7-0.2-2.5c-2-1.4-3.9-3-4.9-5.3c-0.7-1.7-1.8-2.5-3.1-3.4
	c-1.2-0.9-2.6,0.1-3.7-0.7C130.2,509.2,129.8,509.7,129.5,510z M194.2,238.3c0,9.3,0,18.4,0,27.7c5,0,9.7,0,14.7,0
	c0,5.3,0,10.4,0,16.3c-0.7,0.6-1.8,1.5-2.7,2.2c0,1.7,0,3,0,4.3c1,0.9,2,1.8,2.7,2.4c0,3.8,0,7.2,0,10.6c-1,0.1-1.8,0.1-2.6,0.2
	c-0.2,1.1-0.4,2-0.5,3c-3.3,0-6.4,0-9.2,0c-0.6,1.5-1.2,2.8-1.7,4.1c-6.2,0-11.9,0-17.7,0c0,1-0.1,1.8-0.1,2.8c-2.4,0-4.5,0-6.3,0
	c-0.7,1.2-1.3,2.1-1.9,3.1c-2.2,0-4.3,0-6.6,0c0,3,0,5.7,0,8.6c-1.6,0.6-3,1.1-4.6,1.6c-0.7-1.2-1.3-2.1-2.1-3.3c-1.2,0-2.6,0-3.9,0
	c-1.1-1.1-2.1-2.1-3.2-3.2c-10.3,0-20.7,0-31.4,0c0-3.3,0-6.4,0-9.4c-1.1-1-2-2-3.2-3c0-1.3,0-2.8,0-4.4c-2.6,0.5-3.7-1-4.3-3
	c-1.8-0.5-3.6-0.9-5.2-1.3c-0.6-1-1.1-1.8-1.6-2.6c-2.2,0-4.4,0-6.1,0c-0.9,1.7-1.7,3.2-2.6,5.1c-0.1,1.3-0.1,3-0.2,4.8
	c-1.3,0-2.3,0-3.3,0c-0.5,0.5-0.9,0.9-1.5,1.5c0,2,0,3.9,0,6c1.5,1.8,3.1,3.6,4.7,5.4c-0.5,3-1.2,6.3-1.7,9.5
	c-0.1,0.5,0.4,1.1,0.6,1.7c1.4,3.9,3.9,7.4,4.6,11.6c0.1,0.4,0.7,0.7,1.2,1.2c0.9,0,2.1,0,3.1,0c1.1,3.2,3.9,4.5,5.9,7.1
	c3.6-1.7,2.9,3.4,5.6,3.3c0,0.9,0,1.6,0,2.2c0.9,0.4,1.7,0.8,2.9,1.4c0.5-1.2,0.9-2.5,1.4-3.9c1.1-0.1,2.4-0.3,3.6-0.4
	c0-0.9,0-1.6,0-1.8c1.4-1.4,2.6-2.6,4-4c0.7,0.9,1.7,2,2.6,3.1c1.5,0,2.8,0,4,0c1,1.2,1.9,2.3,3.5,4.3c0,1.1,0,3.4,0,5.6
	c1,0,1.7,0,2.4,0c0.8,0.8,1.6,1.6,2.3,2.3c0,6.3,0,12.4,0,18c-1.7,1.7-3,3-4.8,4.7c-0.1,0.9-0.2,2.5-0.3,4c-2,0-3.7,0-5.3,0
	c-0.5,0.5-1,1-1.4,1.4c0,1.2,0,2.3,0,3.3c0.4,0.4,0.6,0.8,0.9,0.8c1.3,0.4,2.7,0.6,4,0.9c0,0.2,0,0.3,0,0.5
	c-1.2,0.1-2.5,0.1-3.7,0.2c-1.2,1.7-2.2,3.3-3.1,4.6c0,1.2,0,2.2,0,3.1c0.7,0.2,1.3,0.4,2,0.7c0,3.9,0,7.6,0,11
	c1.2,2.4,3.2,1.1,4.7,1.9c0,1.1,0,2.2,0,4.5c-0.1,0-1.1,0.3-2,0.6c0.7,0.7,1.1,1.1,1.5,1.5c2.4,0,4.8,0,7.2,0
	c0.3-0.7,0.6-1.4,1.2-2.7c0.8,1.3,1.2,2,1.8,2.9c2.9,0,6.1,0,9.3,0c0,2.3,0,4.4,0,6.5c-3.6,2.4-7.6,0.9-11.4,1.5
	c-1,0.8-2,1.6-3.7,2.9c0.1,0-0.8,0.2-1.7,0.3c0,0.9,0,1.5,0,2.2c-0.7,0.3-1.4,0.6-2,0.9c0,0.9-0.1,1.7-0.1,2.3
	c-1.8,0.6-3.3,1.1-4.8,1.5c-0.1,0.8-0.2,1.6-0.3,2.3c-2.3,0.5-2.8,3-4.7,4.1c-1.6,0.9-3,3.1-4,4.8c0,3.5,0,6.8,0,10.2
	c1.3,0.9,2.6,1.9,3.9,2.9c0,0.5,0,1.2,0,1.9c1.5,1.1,3.1,2.2,4.7,3.3c1.5,0,3.2,0,5,0c1.6-2.3,3.1-4.7,4.8-7.2c1.5,0,3,0,4.2,0
	c0.5-0.5,0.9-0.9,1-1c0.5-4.7,1-9.2,1.5-13.7c1.3-0.8,2.5-1.6,3.7-2.3c0.1-1.7,0.2-3.2,0.3-4.8c1,0,1.7,0,2.3,0
	c0.4,0.8,0.9,1.7,1.6,3.1c0,1.8,0,4.2,0,6.9c1.4-0.1,2.7-0.1,4.1-0.2c-1-3,1.2-3.5,3-4.5c0-1.7,0-3.5,0-5.3c0.9,0,1.6,0,2.1,0
	c1.6-1.6,3.2-3.1,4.9-4.7c0-0.7,0-1.4,0-1.8c1.5-0.6,2.6-1,3.9-1.5c-0.6-6.8,0.5-13.1,1.8-19.4c-0.4-0.8-0.8-1.6-1.4-2.7
	c-1.3,0-2.8,0-4.4,0c-0.1-1-0.1-1.7-0.2-2.5c-1-0.6-1.9-1.1-3-1.7c0-1.9,0-3.7,0-5.8c-2.4,0-4.7,0-7.2,0c1.5-3.7-2.7-3.5-3.2-5.8
	c-0.4-1.8-2.3-0.8-3.6-1.5c0.1-1.1,0.1-2.4,0.2-3.4c2.1,0,3.9,0,5.7,0c0.1,1,0.2,1.7,0.3,2.5c1.7,0.9,2.8,0.1,3.7-1c0-2,0-3.7,0-5.5
	c-2.9-0.1-2.7-2.4-3.1-4.1c-1-0.1-1.8-0.1-2.8-0.1c0.1-0.8,0.3-1.4,0.4-2.1c1,0,1.8,0,2.6,0c0-1.6,0-3.1,0-4.6
	c-1-0.2-1.9-0.3-2.9-0.5c0.1-0.6,0.1-1.1,0.2-1.6c2.2-0.6,4.6,0.5,6.5-1c2.1,1.9,4.8,0.1,7.2,1.1c0.1,0.7,0.2,1.5,0.2,2.3
	c2,1.6,4.5,1.4,6.9,2.2c-1.3,0.6-2.7,1.2-4.2,1.8c0,2.3,0,4.8,0,6.8c-1.2,0.9-2.1,1.5-2.8,2c0,2.6,0,4.9,0,7.2
	c1.8,1.3,1.8,1.3,5.2,1c0.3-0.4,0.8-1.1,1.2-1.7c1.6,0,2.9,0,4.2,0c0.3-0.6,0.5-1.2,0.8-2c1.2,0.1,2.3,0.2,4,0.3
	c-2.3,1.7-3,4.3-5.3,4.9c0,2.4,0,4.5,0,6.5c1.1,0.3,2.1,0.6,3,0.9c0.2,0.4,0.5,0.7,0.7,1.1c-3.5,0-3.9,2.2-4.2,4.6c-1,0-1.7,0-2.6,0
	c0,3.6,0,7.1,0,10.7c2.2,0,4.3,0,6.7,0c0.6-2,2.8-2.8,4.4-4.6c0-1.7,0-3.4,0-5.2c1-0.1,1.8-0.1,2.5-0.2c0.2-1.1,0.4-2,0.5-2.9
	c1.6,0.9,2.2,2.1,1.4,3.7c-0.3,0.6-0.6,1.3-0.9,2.1c2.1,0.1,3.6,0.2,5.4,0.4c0,1.4,0,2.6,0,3.9c1.6,0,3.1,0,4.4,0
	c1.2,1.4,3,2.2,2.4,4.3c-1.2,1.7-2.7,3.1-4.3,2.9c-0.8,1.5-1.3,2.4-1.7,3.3c-0.5,1.1-1,2.3-1.4,3.3c-0.5,0.1-0.9,0.2-1.4,0.3
	c0,1.6,0,3,0,4.4c1.7,1,1.7,3.5,3.9,3.9c0,2.3,0,4.7,0,7c-0.6,0.6-1.2,1.2-2,2c0.1,2.4-0.1,5,0.2,7.7c2.6-1.4,2.6-1.4,3.2-4.1
	c1.1,0,2.2-0.1,3.5-0.2c0.5-2.1,3-2.6,3.9-4.3c1-1.9,3.3-2.3,4.3-4.5c0-2,0-4.3,0-6.3c-0.6-1.1-1-1.9-1.4-2.8
	c-0.8-0.1-1.6-0.1-2.3-0.2c0-1.4,0-2.6,0-3.4c1.5-0.6,2.7-1.1,3.6-1.5c0.2-1.6,0.3-2.8,0.4-3.8c1,0.9,1.8,1.6,2.9,2.6
	c0,3.1,0,6.6,0,10.3c1.2,0.4,2.4,0.8,3.9,1.2c0,3.1,0,6.3,0,10c1.9-0.5,3.4-0.9,4.9-1.3c0-1.9,0-3.4,0-4.6c0.5-0.5,0.9-0.9,1.4-1.4
	c3.3,0,6.8,0,10.2,0c0.4,0,0.9-0.2,1.3-0.4c0-1.5,0-2.8,0-4.3c0.7-0.5,1.5-1.1,2.4-1.7c0.8,1.3,1.5,2.3,2,3.2c1.6,0,3,0,4.3,0
	c0.6-0.6,0.9-0.9,1.4-1.4c-0.6-3.4,1-7.1-0.9-10c-2.3,0.2-4.1,0.4-5.8,0.6c-1.2-1.8-2.2-3.2-3.2-4.7c0-3.3,0-6.8,0-9.9
	c4.6-2.6,1.9-7.2,3-10c1.6-0.6,2.7-1.1,3.8-1.5c0.1-1.5,0.1-2.6,0.2-3.9c1.6-0.9,3.3-1.8,5.1-2.8c0-0.7,0-1.4,0-2.4c2,0,3.8,0,5.5,0
	c0.7-0.7,1.3-1.3,1.6-1.7c2.3,0,4.5,0,5.8,0c1.3,1.1,2,1.8,2.6,2.3c-2.3,0.9-3.6,3.2-5.6,4.8c0,2.2,0,4.3,0,6.5
	c1.3,0.9,2.6,1.9,4.1,3c0,1.5,0,3.3,0,5.1c1,0.1,1.8,0.2,2.3,0.2c0.6,1.5,1.1,2.8,1.6,4.1c2.2,0,4,0,5.7,0c0.1,1,0.2,1.8,0.3,2.6
	c2.7,0,5.2,0,7.6,0c0.4-2.1,0.8-3.8,1.3-5.9c-2.7,2-5.3,0.7-7.7,1.2c-0.2-1.2-0.4-2.2-0.6-3.2c-1.6,0-3.1,0-4.7,0c0-1.6,0-3.1,0-4.9
	c-1.4,0-2.6,0-3.5,0c0.3-2.5,0.5-4.6,0.8-6.8c0.8-0.1,1.6-0.2,2.5-0.3c0-1.9,0-3.8,0-5.7c-0.7-0.2-1.3-0.4-1.8-0.5
	c0-0.2,0-0.4,0.1-0.6c1.6,0,3.1,0,4.6,0c0.8-0.9,1.3-1.5,1.6-1.9c4.1,0,7.9,0,11.6,0c0.8,1.4,1.6,2.6,2.3,3.7c1.6,0,3.1,0,4.4,0
	c0.7-0.7,1.3-1.3,1.6-1.6c2.1-0.3,3.9-0.8,5.7-0.8c2,0,4.1,0.6,6.1,0.9c0,0.8,0,1.4,0,1.8c2.6,3.7,7.1,0.2,9.9,3.1
	c0.1,1.6,0.2,3.2,0.3,4.9c2.5,0,4.6,0,6.9,0c0,2.3,0,4.4,0,6.6c1.1,0.2,2,0.3,3.5,0.5c-1.5,1-2.5,1.6-3.6,2.3c0,0.6,0,1.3,0,1.4
	c-2.1,1.9-3.9,3.5-5.9,5.3c-1.2,0-2.6,0-4.2,0c0,1.7,0,3.2,0,4.8c-2,0-3.7,0-4.8,0c-3.1,1.1-1.5,3.5-2.5,5c-1.7-2-3.7-0.7-5.7-1.2
	c-0.9,2.2-1.7,4-2.5,6c-2.5,0.5-2.5,0.5-4,3.3c-3.7,0-7.5,0-11.6,0c-0.4,1.2-0.8,2.4-1.1,3.5c-1.3,0.5-2.6,1-3.6,1.4
	c0,2.3,0,4.1,0,6.2c1.2,0.4,2.4,0.8,3.6,1.1c0.2,0.9,0.3,1.8,0.5,2.5c8,0,15.8,0,24.1,0c-0.1-2.6,2.5-2.7,3.7-4.3c0-3,0-6,0-9
	c-1-0.6-1.9-1.1-2.7-1.6c0-1.8,0-3.3,0-4.9c1.9,0,3.6,0,5.6,0c0.5-0.6,1.1-1.4,1.8-2.2c2.5,0,5,0,7.6,0c0-1,0-1.8,0-2.4
	c1.4-0.5,2.5-0.9,3.8-1.3c0-1.8,0-3.2,0-4.2c1.5-3,4.1-1.3,6-2.1c0.1-0.9,0.2-1.7,0.3-2.6c3.6,0,7.2,0,10.9,0c0,2,0,3.8,0,5.4
	c1,0.5,1.8,0.8,2.5,1.2c1.1-0.7,2.2-1.3,3.5-2.2c0-2.2,0-4.4,0-6.8c1.8,0,3.3,0,4.9,0c0-2.6,0-5.1,0-7.7c2,0,3.7,0,5.6,0
	c1-1.3,1.9-2.6,3.1-4.2c1.1,0,2.5,0,4,0c0.6-1.1,1.2-2,1.8-3.1c1.7,0,3.5,0,4.8,0c2.9-4.2,6.8-2.3,10.1-2.9c0.8,1.1,1.5,2.1,2.3,3.1
	c0.9,1,1.8,2,2.8,3.2c3,0,6.1,0,9.2,0c0,2,0,3.8,0,5.6c-1,0.2-1.9,0.3-2.8,0.5c-0.1,1-0.1,1.8-0.2,2.8c-2.3-0.3-4.6,0.5-6.6-0.9
	c-1.9,2.8-1.8,3.2,0.3,5.9c3.8-0.6,7.8,0.9,11.3-1c1.5,0.5,2.8,0.9,4.1,1.3c0,1.7,0,3.4,0,5.1c1.1,0.5,2.2,1.1,3,1.5
	c1.1-0.6,2-1,2.8-1.4c0.1-1.7,0.2-3.5,0.3-5.3c0-0.1,0.2-0.2,0.6-0.5c0.5,0,1.3,0,2.3,0c0-2.3,0-4.4,0-6.5c0.8-0.3,1.3-0.5,2.1-0.7
	c0-0.8,0-1.6,0-2.5c0.6,0,1.1,0,1.7,0c0.1,1,0.3,1.9,0.4,2.8c1.6,0,3.1,0,4.2,0c0.7-1.1,1.3-2.1,2-3.1c2.5,0,5,0,7.3,0
	c0.5-0.5,0.9-0.9,1.6-1.6c0-2.2,0-4.7,0-8.4c1.2,1.6,1.7,2.3,2.2,3.1c1.4,0.1,2.9,0.2,4.7,0.3c0,1.1,0,1.9,0,2.7c2,0,3.8,0,5.6,0
	c0.2-1,0.3-1.9,0.5-3c3,0,5.8,0,8.5,0c0.3-0.8,0.5-1.3,0.6-1.9c0.5,0,0.8,0,1.2,0c0.3,0.7,0.6,1.4,1,2.1c1.9-0.3,4.1,0.7,5.6-2
	c0-1,0-2.5,0-4c0.7-0.5,1.3-1.1,2.1-1.6c0-4.8,0-9.6,0-14.4c0.2,0,0.4,0,0.6,0c0.1,1.9,0.2,3.8,0.3,5.6c2.8,1.9,3.2,1.9,5.7,0
	c0-2.2,0-4.4,0-6.5c-1.7-0.1-3.3-0.2-5.1-0.4c0.5-4.7,1-9,1.4-13.2c1.1-2.1,3.7-2.4,4.5-4.5c0.8-0.1,1.6-0.1,2.3-0.2
	c0-2,0-3.7,0-5.6c0.6-0.5,1.4-1.1,2.2-1.8c0-1.9,0-3.6,0-5.4c0.9,0,1.6,0,2.2,0c2.3-4.1,5.3-7.3,10.4-7.2c0.3-1.9,0.6-3.7-1.4-4.7
	c-0.3,0.3-0.7,0.6-1.3,1c0-1.1,0-1.9,0-3.3c0.7-0.6,1.8-1.5,2.7-2.3c0-3.6,0-6.9,0-10.2c-1-1-2-1.9-2.7-2.6c0-1.3,0-2.5,0-3.5
	c0.8-0.2,1.3-0.4,1.8-0.5c0-4.3,0-8.3,0-12.6c-1.2-0.5-2.5-1.1-4-1.7c0.8-0.3,1.4-0.5,1.9-0.7c0-1.9,0-3.7,0-5.4
	c-2.8-0.3-3.5-4.3-6.6-3.3c-0.3-1.9-0.8-3.5-0.4-5.3c0.5-2,0.1-4.2,0.1-6.4c-1-0.1-1.8-0.2-3-0.3c0.5-3-2.7-4.6-2.8-6.4
	c0.5-2.5,0.8-4,1-5.3c2.3,0.4,4.3,0.8,6.5,1.2c1.1,1,1.3,3.3,3.9,3.3c0.5-0.2,1.3-0.6,2-1c0.4-0.8,0.7-1.5,1.2-2.6
	c0-1.8-0.1-4.1,0-6.4c0.2-2.4,0.7-4.7,1-7c-0.9-0.9-1.7-1.7-2.4-2.4c-5.6,0-11,0-16.1,0c-1.2,1.8-2.2,3.3-3.4,5.1c-2,0-4.1,0-6,0
	c-0.1,0.7-0.2,1.2-0.3,1.6c-2.3,0-4.4,0-6.5,0c-0.2-0.7-0.5-1.3-0.7-1.8c-0.9-0.1-1.7-0.1-2-0.2c-1-1.5-1.8-2.6-2.9-4.1
	c0.4-2.3,0.9-5,1.3-7.3c1.6-0.7,2.9-1.2,4-1.7c0-3.1,0-5.8,0-8.2c0.8-1,1.5-1.8,2-2.4c-1.2-2.7-2.1-5-3.2-7.3
	c-4.7,0.5-9.3-1-13.9,1.5c0.3,2.1-0.7,3.9-2.3,5.3c-0.3,0.3-0.9,0.2-1.5,0.3c-0.2-1-0.3-2-0.4-2.9c-0.9-0.1-1.7-0.2-2.4-0.3
	c-0.5-1.4-0.9-2.7-1.3-4.1c1.8-2.4,0.9-5.1,0.8-7.8c-1,0-1.7,0-2.4,0c0.2-0.2,0.4-0.4,0.5-0.5c-0.7-0.3-1.5-0.5-2.2-0.8
	c3.4-0.2,4.4-2,4.4-4.5c1-0.1,1.8-0.2,2.6-0.3c0.2-1,0.3-1.9,0.5-3.1c3.4,1.5,3.2-1.9,4.7-3.3c0-1.2-0.1-2.6,0-3.9
	c0.2-1.1,0.7-2.2,1.1-3.6c-2.3,0-4.1,0-6.2,0c0-1.4,0-2.6,0-3.9c-1,0-1.7,0-2.1,0c-1.6-1.3-3.1-2.5-4.8-3.8
	c-0.1-5.5-1.5-7.6-5.9-8.5c-0.1-1.9-0.2-3.8-0.3-5.7c-1,0-1.7,0-2.3,0c-0.7-1.4-1.4-2.7-2-3.9c-1-0.1-1.8-0.2-2.5-0.3
	c0-3,0-5.7,0-8.7c-0.6-0.5-1.4-1.1-2.2-1.8c0-1.5,0-3,0-4.6c-1,0-1.8,0-2.6,0c-0.1-1-0.2-1.7-0.2-2.1c-1.4-1-2.5-1.9-3.6-2.6
	c-1.8-0.1-3.6-0.2-5.2-0.2c-0.2-0.8-0.3-1.3-0.4-1.9c-2.6,0-5,0-7.5,0c-0.2-1.1-0.3-2-0.4-2.9c-1-0.1-1.8-0.1-1.8-0.1
	c-1.5-1.7-2.5-2.9-3.6-4.2c-1.5,0-2.9,0-4.5,0c0-1,0-1.8,0-2.8c-1.8,0-3.8,0.6-5-0.1c-1.9-1.1-3.1,0.8-4.7,0.1
	c-0.1,1.1-0.2,1.8-0.3,2.8c-1.6,0.5-3.2,1.1-4.8,1.7c-0.1,0.8-0.1,1.6-0.3,2.7c-8.3,0-16.6,0-25,0c0,1.1,0,1.9,0,2.7
	c-1,0.1-1.7,0.2-2.5,0.3c-0.6,0.6-1.2,1.2-2,2c-0.9,0-2.1,0-3.4,0c-0.5,1.4-1,2.7-1.5,3.9c-2.9,2.6-7.7,3-7.8,7.8
	c-3.3,0.4-6.3,0.9-9.4,1.1c-11.7,0.7-23.3-1.9-35.3-0.8c-2.1-6.7-0.5-13.3-1.2-19.9c-4.9-2.5-10.3-0.6-15.4-1.3
	c-0.5-0.8-1-1.8-1.6-2.8c-1.5,0-3,0-4.2,0c-0.7-1.2-1.3-2.1-1.8-2.9c-10.7,0-21.1,0-31.5,0c-0.9,1.1-1.8,2.1-2.9,3.5
	c-0.3-1.6-0.4-2.5-0.6-3.5c-0.9-0.1-1.8-0.3-2.3-0.4c-0.6-1.5-1-2.7-1.4-3.7c-1.8,0-3.3,0-4.9,0c-0.9,1.3-1.9,2.6-2.9,3.9
	c-1.2,0-2.5,0-4.4,0c-0.7,0.8-1.6,2-2.3,2.9c-1.1,0.2-1.9,0.3-2.5,0.4c0,3.7,0,7,0,11.3c0.2,0.1,1.2,0.4,2.1,0.8
	c-0.9,0.9-1.5,1.5-2.3,2.3c0,1.3,0,2.7,0,4.1c-0.6,0.2-1.1,0.3-1.7,0.4c-0.2,4.5-4,5.6-7,7.2c0,3.5,0,7,0,10.5
	c2.8,0.3,6.1-0.8,7.3,3c0.6,0,1.3,0,2,0c0.6-1,1.3-2,1.8-2.8c2.8,0,5.3,0,7.7,0c0.1,1,0.2,1.8,0.3,2.9c4.3,0,8.6,0,13.2,0
	c-1.2,2.3,0.4,3,1.3,4.1c0.3,0.3,0.2,0.9,0.3,1.4c-0.7,0.2-1.3,0.5-1.8,0.7c-0.2,0.9-0.3,1.8-0.5,2.7c-2.9,0-5.5,0-8.2,0
	c-0.5,0.5-0.9,0.9-1.6,1.6c0,3.3,0,6.7,0,9.8c-1.2,0.8-2.1,1.4-2.9,1.9c0,3.2,0,6.2,0,10c0.8,0.6,2,1.4,2.9,2.1c0,2,0,3.6,0,5.3
	c-1,0.9-2,1.8-3.1,2.9c0,0.7,0,1.5,0,2.1c-1.7,0.5-3.2,1-4.8,1.2c-1.7,0.3-3.7-0.6-5.1,1.7c0,2.5,0,5.2,0,7.9
	C195.2,237.3,194.6,237.9,194.2,238.3z M436,446.2c0-3,0-6.4,0-9.6c-1.9-2-1.5-6.4-5.9-5.7c0-1.4,0-2.5,0-3.4c1.4-0.5,2.7-1,3.7-1.4
	c0-3.6,0-6.7,0-10.1c-1.4-0.5-2.6-1-3.8-1.4c-0.1-0.9-0.1-1.7-0.2-2.5c-1.3,0-2.3,0-3.8,0c-0.7,0.9-1.6,2-2.4,3c-2.6,0-5,0-7,0
	c-1.9,0.9-1.6,2.5-1.6,4c0,10.5,0,21,0,31.5c0.5,0.5,0.9,0.9,1.5,1.5c0.9,0,1.9,0,3,0c0.6-0.6,1.3-1.3,2-1.9
	c1.2,2.4,3.8,3.1,4.9,4.8c1.5,0,2.4,0,3.4,0c0.2-1,0.3-2,0.5-3c1,0,1.7,0,2.7,0C434,450,434.9,448.2,436,446.2z M195,500.7
	c0-1.2,0-2.2,0-2.9c0.9-1.4,1.7-2.5,2.6-3.8c0.5,0,1.2,0,2,0c0.9-1,1.8-2.1,2.7-3.1c-1.1-0.9-2-1.6-3.1-2.6c-1.3,0-3.2,0-5.3,0
	c0,1.4,0,2.5,0,3.8c-1.3,0-2.4,0-3.6,0c-0.5,0.8-0.8,1.5-1.3,2.1c-0.6,0.6-1.3,1.1-1.9,1.6c-0.1,0.8-0.1,1.6-0.2,2.5
	c-1.1,0-1.9,0-2.6,0c0,2.1,0,4,0,5.7C188.4,504.8,191.1,501.4,195,500.7z M155.8,476.9c0.4-3.4,5.1-5.1,4.1-9.4
	c-1.3-1.9-3-1.7-4.8-1.2c-0.2,1-0.3,1.9-0.4,2.5c-3.4,0.9-6.9-1.2-9.6,1.4c0,2.3,0,4.4,0,6.6C148.7,476.9,152.1,476.9,155.8,476.9z
	 M216.9,512.6c-1.2-0.8-2.4-1.7-3.4-2.4c-1.5,0-3,0-4.4,0c-0.1,1.7-0.3,3.2-0.4,5.7c-0.6-1.6-0.8-2.1-1-2.7c-1,0.6-2,1.6-3.1,1.7
	c-1.4,0.2-2.4,0.8-2.5,1.8c-0.1,1.1,0.6,2.3,1.1,3.7c2.2-0.7,4-1.2,5.9-1.7c0-1,0-1.8,0-2.6c1,0,1.7,0,2.4,0c0.5,1.4,1,2.7,1.4,3.8
	c1.6,0,2.7,0,3.9,0C216.9,517.3,216.9,514.9,216.9,512.6z M422.5,457c-0.7-1-1.3-2.1-1.9-3c-1.6,0-2.9,0-4.2,0c-0.5,0.5-1,1-1.5,1.5
	c0.6,2.7-1,5.8,1.3,8.3c1.5,0,3,0,4.4,0c0.6-0.6,1.2-1.2,1.8-1.8c1.1-0.1,2.2-0.1,3.2-0.2c1.7-2.5,1.7-2.5-0.2-4.9
	C424.5,457,423.5,457,422.5,457z M275,480.5c-2.6-2-2.6-2-4.8,0c0,4.6,0,9,0,13.5c1.9-0.2,3.9,0.6,4.8-1.9
	C275,488.4,275,484.5,275,480.5z M109.7,378.2c-1.3,0-2.4,0-3.6,0c0,1.6,0,3.1,0,4.4c0.4,0.4,0.8,0.8,1.2,1.2c4.5,0,9.1,0,13.4,0
	c0.4-1.7,0.7-3.2,1-4.6c-0.3,0.3-0.5,0.5-0.8,0.8c-0.1-0.7-0.2-1.4-0.3-2.6c-0.5,1.5-0.7,2-0.9,2.6c-2.9,0-5.7,0-8.3,0
	C110.8,379.3,110.3,378.8,109.7,378.2z M162.2,456.2c0,3.1,0,5.9,0,8.5c0.5,0.5,0.9,0.9,1.1,1.1c2.3-1,4.5-1.9,6.6-2.8
	c0-1.8,0-3.3,0-5.1C167.4,457.1,165.2,455.4,162.2,456.2z M273.7,466.2c-1.3,0-2.4,0-3.4,0c0,2.7,0,5.3,0,7.7c2,0,3.8,0,5.7,0
	c0-1.9,0-3.7,0-5.4C275.1,467.6,274.3,466.8,273.7,466.2z M407.1,484.4c1.5,2.8,3.8,1.2,5.8,1.8c0-2.2,0-3.9,0-5.7
	c-2.6-1.9-3-1.9-5.8,0C407.1,481.7,407.1,483.2,407.1,484.4z M336.8,486.9c0-2.2,0-4,0-5.7c-2.1,0-4,0-5.7,0c0,2,0,3.8,0,5.7
	C333.1,486.9,334.9,486.9,336.8,486.9z M251.2,428.3c0,1.3,0,2.4,0,3.3c1.5,1.9,3.2,1.5,4.7,1.2c0-2.1,0-3.9,0-5.7
	c-1.3,0-2.4,0-3.4,0C252,427.5,251.7,427.8,251.2,428.3z M231.5,469c0.8-0.8,1.6-1.6,2.5-2.5c0-1.7,0.5-3.7-1.8-4.6
	c-1,0.5-2.1,1-3.1,1.6c0,1.1,0,2.1,0,3C229.9,467.4,230.7,468.2,231.5,469z M270.1,438.4c0,1.2,0,2.3,0,3.5c1.2,0,2.3,0,3.5,0
	c1.3-1.1,2.2-2.4,0.8-4C272.9,436.3,271.6,436.7,270.1,438.4z M85.8,202c-0.2,0-0.3,0-0.5,0c0,0.7,0,1.3,0,2c0.2,0,0.3,0,0.5,0
	C85.8,203.3,85.8,202.7,85.8,202z"/>
</svg>
